{
	"asset":{
		"generator":"Khronos glTF Blender I/O v5.0.21",
		"version":"2.0"
	},
	"scene":0,
	"scenes":[
		{
			"name":"Scene",
			"nodes":[
				0
			]
		},
		{
			"name":"Scene.001"
		}
	],
	"nodes":[
		{
			"mesh":0,
			"name":"Cube.029",
			"translation":[
				-7.486140251159668,
				5.395139217376709,
				-6.932634353637695
			]
		}
	],
	"materials":[
		{
			"doubleSided":true,
			"name":"bake2",
			"pbrMetallicRoughness":{
				"baseColorTexture":{
					"index":0,
					"texCoord":1
				},
				"metallicFactor":0,
				"roughnessFactor":0.829032301902771
			}
		}
	],
	"meshes":[
		{
			"name":"Cube.006",
			"primitives":[
				{
					"attributes":{
						"POSITION":0,
						"NORMAL":1,
						"TEXCOORD_0":2,
						"TEXCOORD_1":3
					},
					"indices":4,
					"material":0
				}
			]
		}
	],
	"textures":[
		{
			"sampler":0,
			"source":0
		}
	],
	"images":[
		{
			"mimeType":"image/png",
			"name":"house1_bakev3",
			"uri":"house1_bakev3.png"
		}
	],
	"accessors":[
		{
			"bufferView":0,
			"componentType":5126,
			"count":14855,
			"max":[
				5.98177433013916,
				8.947364807128906,
				4.162249565124512
			],
			"min":[
				-8.286128044128418,
				-5.489134788513184,
				-6.019331932067871
			],
			"type":"VEC3"
		},
		{
			"bufferView":1,
			"componentType":5126,
			"count":14855,
			"type":"VEC3"
		},
		{
			"bufferView":2,
			"componentType":5126,
			"count":14855,
			"type":"VEC2"
		},
		{
			"bufferView":3,
			"componentType":5126,
			"count":14855,
			"type":"VEC2"
		},
		{
			"bufferView":4,
			"componentType":5123,
			"count":26514,
			"type":"SCALAR"
		}
	],
	"bufferViews":[
		{
			"buffer":0,
			"byteLength":178260,
			"byteOffset":0,
			"target":34962
		},
		{
			"buffer":0,
			"byteLength":178260,
			"byteOffset":178260,
			"target":34962
		},
		{
			"buffer":0,
			"byteLength":118840,
			"byteOffset":356520,
			"target":34962
		},
		{
			"buffer":0,
			"byteLength":118840,
			"byteOffset":475360,
			"target":34962
		},
		{
			"buffer":0,
			"byteLength":53028,
			"byteOffset":594200,
			"target":34963
		}
	],
	"samplers":[
		{
			"magFilter":9729,
			"minFilter":9987
		}
	],
	"buffers":[
		{
			"byteLength":647228,
			"uri":"house1_v2.bin"
		}
	]
}
